<?xml version="1.0" encoding="utf-8"?>
<!-- Generator: Adobe Illustrator 27.0.1, SVG Export Plug-In . SVG Version: 6.00 Build 0)  -->
<svg version="1.1" id="Layer_1" xmlns="http://www.w3.org/2000/svg" xmlns:xlink="http://www.w3.org/1999/xlink" x="0px" y="0px"
	 viewBox="0 0 2106.8 700" style="enable-background:new 0 0 2106.8 700;" xml:space="preserve">
<style type="text/css">
	.st0{fill-rule:evenodd;clip-rule:evenodd;}
</style>
<path d="M487.8,459.8L399.3,285l-90.2,90.2l14,80.1L294,484.4l-48.7-98.6l-100.2-47l30.8-30.8l80.1,14l90.7-90.7l-175.8-87.9
	l29.1-29.1L418.3,159l72.2-72.2c15.1-15.1,38.6-14.6,53.2,0c14.6,14.6,14.6,38.6,0,53.2l-71.1,72.2l44.2,219L487.8,459.8z"/>
<path class="st0" d="M688,484.4h13.1V75.7H688V484.4z"/>
<path class="st0" d="M1298.3,484.4h12V75.7h-12V484.4z"/>
<path class="st0" d="M993.1,484.4h13.1V75.7h-13.1V484.4z"/>
<path class="st0" d="M1603.4,484.4h12V75.7h-12V484.4z"/>
<path class="st0" d="M709.8,484.4h24V75.7h-24V484.4z"/>
<path class="st0" d="M1320.1,484.4h22.9V75.7h-22.9V484.4z"/>
<path class="st0" d="M1014.9,484.4h22.9V75.7h-22.9V484.4z"/>
<path class="st0" d="M1625.2,484.4h22.9V75.7h-22.9V484.4z"/>
<path class="st0" d="M742.5,484.4h16.3V75.7h-16.3V484.4z"/>
<path class="st0" d="M1352.7,484.4h16.3V75.7h-16.3V484.4z"/>
<path class="st0" d="M1047.6,484.4h16.3V75.7h-16.3V484.4z"/>
<path class="st0" d="M1657.9,484.4h16.3V75.7h-16.3V484.4z"/>
<path class="st0" d="M774.1,484.4h8.7V75.7h-8.7V484.4z"/>
<path class="st0" d="M1384.3,484.4h9.8V75.7h-9.8V484.4z"/>
<path class="st0" d="M1079.2,484.4h9.8V75.7h-9.8V484.4z"/>
<path class="st0" d="M1688.4,484.4h10.9V75.7h-10.9V484.4z"/>
<path class="st0" d="M799.1,484.4h15.3V75.7h-15.3V484.4z"/>
<path class="st0" d="M1410.5,484.4h14.2V75.7h-14.2V484.4z"/>
<path class="st0" d="M1105.4,484.4h14.2V75.7h-14.2V484.4z"/>
<path class="st0" d="M1715.6,484.4h14.2V75.7h-14.2V484.4z"/>
<path class="st0" d="M827.5,484.4h16.3V75.7h-16.3V484.4z"/>
<path class="st0" d="M1438.8,484.4h14.2V75.7h-14.2V484.4z"/>
<path class="st0" d="M1132.6,484.4h15.3V75.7h-15.3V484.4z"/>
<path class="st0" d="M1742.9,484.4h15.3V75.7h-15.3V484.4z"/>
<path class="st0" d="M858,484.4h8.7V75.7H858V484.4z"/>
<path class="st0" d="M1468.3,484.4h8.7V75.7h-8.7V484.4z"/>
<path class="st0" d="M1163.1,484.4h8.7V75.7h-8.7V484.4z"/>
<path class="st0" d="M1773.4,484.4h8.7V75.7h-8.7V484.4z"/>
<path class="st0" d="M880.9,484.4h22.9V75.7h-22.9V484.4z"/>
<path class="st0" d="M1490.1,484.4h24V75.7h-24V484.4z"/>
<path class="st0" d="M1186,484.4h22.9V75.7H1186V484.4z"/>
<path class="st0" d="M1795.2,484.4h24V75.7h-24V484.4z"/>
<path class="st0" d="M911.4,484.4h16.3V75.7h-16.3V484.4z"/>
<path class="st0" d="M1521.7,484.4h16.3V75.7h-16.3V484.4z"/>
<path class="st0" d="M1216.5,484.4h16.3V75.7h-16.3V484.4z"/>
<path class="st0" d="M1826.8,484.4h16.3V75.7h-16.3V484.4z"/>
<path class="st0" d="M943,484.4h9.8V75.7H943V484.4z"/>
<path class="st0" d="M1553.3,484.4h9.8V75.7h-9.8V484.4z"/>
<path class="st0" d="M1248.1,484.4h9.8V75.7h-9.8V484.4z"/>
<path class="st0" d="M1858.4,484.4h9.8V75.7h-9.8V484.4z"/>
<path class="st0" d="M969.2,484.4h14.2V75.7h-14.2V484.4z"/>
<path class="st0" d="M1579.4,484.4h14.2V75.7h-14.2V484.4z"/>
<path class="st0" d="M1274.3,484.4h14.2V75.7h-14.2V484.4z"/>
<path class="st0" d="M1884.6,484.4h14.2V75.7h-14.2V484.4z"/>
</svg>
